<svg width="105" height="15" viewBox="0 0 105 15" fill="none" xmlns="http://www.w3.org/2000/svg">
<path d="M4.065 11.205C3.375 11.205 2.755 11.05 2.205 10.74C1.655 10.42 1.22 9.96 0.9 9.36C0.579999 8.76 0.419999 8.035 0.419999 7.185C0.419999 6.325 0.579999 5.6 0.9 5.01C1.23 4.41 1.67 3.955 2.22 3.645C2.77 3.335 3.385 3.18 4.065 3.18C4.815 3.18 5.485 3.35 6.075 3.69C6.675 4.02 7.145 4.485 7.485 5.085C7.825 5.685 7.995 6.385 7.995 7.185C7.995 7.975 7.825 8.675 7.485 9.285C7.145 9.885 6.675 10.355 6.075 10.695C5.485 11.035 4.815 11.205 4.065 11.205ZM-5.06639e-07 11.13V-3.39746e-06H1.065V5.58L0.915 7.17L1.02 8.76V11.13H-5.06639e-07ZM3.99 10.26C4.55 10.26 5.05 10.135 5.49 9.885C5.93 9.625 6.28 9.265 6.54 8.805C6.8 8.335 6.93 7.795 6.93 7.185C6.93 6.565 6.8 6.025 6.54 5.565C6.28 5.105 5.93 4.75 5.49 4.5C5.05 4.24 4.55 4.11 3.99 4.11C3.43 4.11 2.925 4.24 2.475 4.5C2.035 4.75 1.685 5.105 1.425 5.565C1.175 6.025 1.05 6.565 1.05 7.185C1.05 7.795 1.175 8.335 1.425 8.805C1.685 9.265 2.035 9.625 2.475 9.885C2.925 10.135 3.43 10.26 3.99 10.26ZM10.166 11.13V3.255H11.231V11.13H10.166ZM10.706 1.515C10.486 1.515 10.301 1.44 10.151 1.29C10.001 1.14 9.92602 0.959997 9.92602 0.749997C9.92602 0.539997 10.001 0.364996 10.151 0.224996C10.301 0.0749965 10.486 -3.39746e-06 10.706 -3.39746e-06C10.926 -3.39746e-06 11.111 0.0699966 11.261 0.209997C11.411 0.349997 11.486 0.524997 11.486 0.734997C11.486 0.954997 11.411 1.14 11.261 1.29C11.121 1.44 10.936 1.515 10.706 1.515ZM14.1943 11.13V3.255H15.2143V5.415L15.0493 5.01C15.2993 4.44 15.6993 3.995 16.2493 3.675C16.7993 3.345 17.4543 3.18 18.2143 3.18C18.8543 3.18 19.4143 3.305 19.8943 3.555C20.3843 3.795 20.7643 4.165 21.0343 4.665C21.3143 5.165 21.4543 5.795 21.4543 6.555V11.13H20.3893V6.66C20.3893 5.83 20.1793 5.205 19.7593 4.785C19.3493 4.355 18.7693 4.14 18.0193 4.14C17.4593 4.14 16.9693 4.255 16.5493 4.485C16.1393 4.705 15.8193 5.03 15.5893 5.46C15.3693 5.88 15.2593 6.39 15.2593 6.99V11.13H14.1943ZM27.6911 14.115C26.9711 14.115 26.2811 14.01 25.6211 13.8C24.9611 13.59 24.4261 13.29 24.0161 12.9L24.5561 12.09C24.9261 12.42 25.3811 12.68 25.9211 12.87C26.4711 13.07 27.0511 13.17 27.6611 13.17C28.6611 13.17 29.3961 12.935 29.8661 12.465C30.3361 12.005 30.5711 11.285 30.5711 10.305V8.34L30.7211 6.99L30.6161 5.64V3.255H31.6361V10.17C31.6361 11.53 31.3011 12.525 30.6311 13.155C29.9711 13.795 28.9911 14.115 27.6911 14.115ZM27.4961 10.83C26.7461 10.83 26.0711 10.67 25.4711 10.35C24.8711 10.02 24.3961 9.565 24.0461 8.985C23.7061 8.405 23.5361 7.74 23.5361 6.99C23.5361 6.24 23.7061 5.58 24.0461 5.01C24.3961 4.43 24.8711 3.98 25.4711 3.66C26.0711 3.34 26.7461 3.18 27.4961 3.18C28.1961 3.18 28.8261 3.325 29.3861 3.615C29.9461 3.905 30.3911 4.335 30.7211 4.905C31.0511 5.475 31.2161 6.17 31.2161 6.99C31.2161 7.81 31.0511 8.505 30.7211 9.075C30.3911 9.645 29.9461 10.08 29.3861 10.38C28.8261 10.68 28.1961 10.83 27.4961 10.83ZM27.6011 9.885C28.1811 9.885 28.6961 9.765 29.1461 9.525C29.5961 9.275 29.9511 8.935 30.2111 8.505C30.4711 8.065 30.6011 7.56 30.6011 6.99C30.6011 6.42 30.4711 5.92 30.2111 5.49C29.9511 5.06 29.5961 4.725 29.1461 4.485C28.6961 4.235 28.1811 4.11 27.6011 4.11C27.0311 4.11 26.5161 4.235 26.0561 4.485C25.6061 4.725 25.2511 5.06 24.9911 5.49C24.7411 5.92 24.6161 6.42 24.6161 6.99C24.6161 7.56 24.7411 8.065 24.9911 8.505C25.2511 8.935 25.6061 9.275 26.0561 9.525C26.5161 9.765 27.0311 9.885 27.6011 9.885ZM37.9446 11.205C37.1246 11.205 36.4046 11.035 35.7846 10.695C35.1646 10.345 34.6796 9.87 34.3296 9.27C33.9796 8.66 33.8046 7.965 33.8046 7.185C33.8046 6.405 33.9696 5.715 34.2996 5.115C34.6396 4.515 35.0996 4.045 35.6796 3.705C36.2696 3.355 36.9296 3.18 37.6596 3.18C38.3996 3.18 39.0546 3.35 39.6246 3.69C40.2046 4.02 40.6596 4.49 40.9896 5.1C41.3196 5.7 41.4846 6.395 41.4846 7.185C41.4846 7.235 41.4796 7.29 41.4696 7.35C41.4696 7.4 41.4696 7.455 41.4696 7.515H34.6146V6.72H40.8996L40.4796 7.035C40.4796 6.465 40.3546 5.96 40.1046 5.52C39.8646 5.07 39.5346 4.72 39.1146 4.47C38.6946 4.22 38.2096 4.095 37.6596 4.095C37.1196 4.095 36.6346 4.22 36.2046 4.47C35.7746 4.72 35.4396 5.07 35.1996 5.52C34.9596 5.97 34.8396 6.485 34.8396 7.065V7.23C34.8396 7.83 34.9696 8.36 35.2296 8.82C35.4996 9.27 35.8696 9.625 36.3396 9.885C36.8196 10.135 37.3646 10.26 37.9746 10.26C38.4546 10.26 38.8996 10.175 39.3096 10.005C39.7296 9.835 40.0896 9.575 40.3896 9.225L40.9896 9.915C40.6396 10.335 40.1996 10.655 39.6696 10.875C39.1496 11.095 38.5746 11.205 37.9446 11.205ZM62.1567 11.205C61.3767 11.205 60.6767 11.035 60.0567 10.695C59.4467 10.345 58.9667 9.87 58.6167 9.27C58.2667 8.66 58.0917 7.965 58.0917 7.185C58.0917 6.395 58.2667 5.7 58.6167 5.1C58.9667 4.5 59.4467 4.03 60.0567 3.69C60.6767 3.35 61.3767 3.18 62.1567 3.18C62.8267 3.18 63.4317 3.31 63.9717 3.57C64.5117 3.83 64.9367 4.22 65.2467 4.74L64.4517 5.28C64.1817 4.88 63.8467 4.585 63.4467 4.395C63.0467 4.205 62.6117 4.11 62.1417 4.11C61.5817 4.11 61.0767 4.24 60.6267 4.5C60.1767 4.75 59.8217 5.105 59.5617 5.565C59.3017 6.025 59.1717 6.565 59.1717 7.185C59.1717 7.805 59.3017 8.345 59.5617 8.805C59.8217 9.265 60.1767 9.625 60.6267 9.885C61.0767 10.135 61.5817 10.26 62.1417 10.26C62.6117 10.26 63.0467 10.165 63.4467 9.975C63.8467 9.785 64.1817 9.495 64.4517 9.105L65.2467 9.645C64.9367 10.155 64.5117 10.545 63.9717 10.815C63.4317 11.075 62.8267 11.205 62.1567 11.205ZM67.3389 11.13V3.255H68.3589V5.4L68.2539 5.025C68.4739 4.425 68.8439 3.97 69.3639 3.66C69.8839 3.34 70.5289 3.18 71.2989 3.18V4.215C71.2589 4.215 71.2189 4.215 71.1789 4.215C71.1389 4.205 71.0989 4.2 71.0589 4.2C70.2289 4.2 69.5789 4.455 69.1089 4.965C68.6389 5.465 68.4039 6.18 68.4039 7.11V11.13H67.3389ZM73.2422 11.13V3.255H74.3072V11.13H73.2422ZM73.7822 1.515C73.5622 1.515 73.3772 1.44 73.2272 1.29C73.0772 1.14 73.0022 0.959997 73.0022 0.749997C73.0022 0.539997 73.0772 0.364996 73.2272 0.224996C73.3772 0.0749965 73.5622 -3.39746e-06 73.7822 -3.39746e-06C74.0022 -3.39746e-06 74.1872 0.0699966 74.3372 0.209997C74.4872 0.349997 74.5622 0.524997 74.5622 0.734997C74.5622 0.954997 74.4872 1.14 74.3372 1.29C74.1972 1.44 74.0122 1.515 73.7822 1.515ZM77.2705 11.13V3.255H78.2905V5.415L78.1255 5.01C78.3755 4.44 78.7755 3.995 79.3255 3.675C79.8755 3.345 80.5305 3.18 81.2905 3.18C81.9305 3.18 82.4905 3.305 82.9705 3.555C83.4605 3.795 83.8405 4.165 84.1105 4.665C84.3905 5.165 84.5305 5.795 84.5305 6.555V11.13H83.4655V6.66C83.4655 5.83 83.2555 5.205 82.8355 4.785C82.4255 4.355 81.8455 4.14 81.0955 4.14C80.5355 4.14 80.0455 4.255 79.6255 4.485C79.2155 4.705 78.8955 5.03 78.6655 5.46C78.4455 5.88 78.3355 6.39 78.3355 6.99V11.13H77.2705ZM90.7672 14.115C90.0472 14.115 89.3572 14.01 88.6972 13.8C88.0372 13.59 87.5022 13.29 87.0922 12.9L87.6322 12.09C88.0022 12.42 88.4572 12.68 88.9972 12.87C89.5472 13.07 90.1272 13.17 90.7372 13.17C91.7372 13.17 92.4722 12.935 92.9422 12.465C93.4122 12.005 93.6472 11.285 93.6472 10.305V8.34L93.7972 6.99L93.6922 5.64V3.255H94.7122V10.17C94.7122 11.53 94.3772 12.525 93.7072 13.155C93.0472 13.795 92.0672 14.115 90.7672 14.115ZM90.5722 10.83C89.8222 10.83 89.1472 10.67 88.5472 10.35C87.9472 10.02 87.4722 9.565 87.1222 8.985C86.7822 8.405 86.6122 7.74 86.6122 6.99C86.6122 6.24 86.7822 5.58 87.1222 5.01C87.4722 4.43 87.9472 3.98 88.5472 3.66C89.1472 3.34 89.8222 3.18 90.5722 3.18C91.2722 3.18 91.9022 3.325 92.4622 3.615C93.0222 3.905 93.4672 4.335 93.7972 4.905C94.1272 5.475 94.2922 6.17 94.2922 6.99C94.2922 7.81 94.1272 8.505 93.7972 9.075C93.4672 9.645 93.0222 10.08 92.4622 10.38C91.9022 10.68 91.2722 10.83 90.5722 10.83ZM90.6772 9.885C91.2572 9.885 91.7722 9.765 92.2222 9.525C92.6722 9.275 93.0272 8.935 93.2872 8.505C93.5472 8.065 93.6772 7.56 93.6772 6.99C93.6772 6.42 93.5472 5.92 93.2872 5.49C93.0272 5.06 92.6722 4.725 92.2222 4.485C91.7722 4.235 91.2572 4.11 90.6772 4.11C90.1072 4.11 89.5922 4.235 89.1322 4.485C88.6822 4.725 88.3272 5.06 88.0672 5.49C87.8172 5.92 87.6922 6.42 87.6922 6.99C87.6922 7.56 87.8172 8.065 88.0672 8.505C88.3272 8.935 88.6822 9.275 89.1322 9.525C89.5922 9.765 90.1072 9.885 90.6772 9.885ZM101.021 11.205C100.201 11.205 99.4808 11.035 98.8608 10.695C98.2408 10.345 97.7558 9.87 97.4058 9.27C97.0558 8.66 96.8808 7.965 96.8808 7.185C96.8808 6.405 97.0458 5.715 97.3758 5.115C97.7158 4.515 98.1758 4.045 98.7558 3.705C99.3458 3.355 100.006 3.18 100.736 3.18C101.476 3.18 102.131 3.35 102.701 3.69C103.281 4.02 103.736 4.49 104.066 5.1C104.396 5.7 104.561 6.395 104.561 7.185C104.561 7.235 104.556 7.29 104.546 7.35C104.546 7.4 104.546 7.455 104.546 7.515H97.6908V6.72H103.976L103.556 7.035C103.556 6.465 103.431 5.96 103.181 5.52C102.941 5.07 102.611 4.72 102.191 4.47C101.771 4.22 101.286 4.095 100.736 4.095C100.196 4.095 99.7108 4.22 99.2808 4.47C98.8508 4.72 98.5158 5.07 98.2758 5.52C98.0358 5.97 97.9158 6.485 97.9158 7.065V7.23C97.9158 7.83 98.0458 8.36 98.3058 8.82C98.5758 9.27 98.9458 9.625 99.4158 9.885C99.8958 10.135 100.441 10.26 101.051 10.26C101.531 10.26 101.976 10.175 102.386 10.005C102.806 9.835 103.166 9.575 103.466 9.225L104.066 9.915C103.716 10.335 103.276 10.655 102.746 10.875C102.226 11.095 101.651 11.205 101.021 11.205Z" fill="#6545C0"/>
<path d="M46.8623 11.205C46.1023 11.205 45.4173 11.035 44.8073 10.695C44.2073 10.345 43.7323 9.87 43.3823 9.27C43.0323 8.66 42.8573 7.965 42.8573 7.185C42.8573 6.395 43.0323 5.7 43.3823 5.1C43.7323 4.5 44.2073 4.03 44.8073 3.69C45.4073 3.35 46.0923 3.18 46.8623 3.18C47.6423 3.18 48.3323 3.35 48.9323 3.69C49.5423 4.03 50.0173 4.5 50.3573 5.1C50.7073 5.7 50.8823 6.395 50.8823 7.185C50.8823 7.965 50.7073 8.66 50.3573 9.27C50.0173 9.87 49.5423 10.345 48.9323 10.695C48.3223 11.035 47.6323 11.205 46.8623 11.205ZM46.8623 10.26C47.4323 10.26 47.9373 10.135 48.3773 9.885C48.8173 9.625 49.1623 9.265 49.4123 8.805C49.6723 8.335 49.8023 7.795 49.8023 7.185C49.8023 6.565 49.6723 6.025 49.4123 5.565C49.1623 5.105 48.8173 4.75 48.3773 4.5C47.9373 4.24 47.4373 4.11 46.8773 4.11C46.3173 4.11 45.8173 4.24 45.3773 4.5C44.9373 4.75 44.5873 5.105 44.3273 5.565C44.0673 6.025 43.9373 6.565 43.9373 7.185C43.9373 7.795 44.0673 8.335 44.3273 8.805C44.5873 9.265 44.9373 9.625 45.3773 9.885C45.8173 10.135 46.3123 10.26 46.8623 10.26ZM53.0566 11.13V3.255H54.0766V5.4L53.9716 5.025C54.1916 4.425 54.5616 3.97 55.0816 3.66C55.6016 3.34 56.2466 3.18 57.0166 3.18V4.215C56.9766 4.215 56.9366 4.215 56.8966 4.215C56.8566 4.205 56.8166 4.2 56.7766 4.2C55.9466 4.2 55.2966 4.455 54.8266 4.965C54.3566 5.465 54.1216 6.18 54.1216 7.11V11.13H53.0566Z" fill="#DBC8FC"/>
</svg>
