<svg width="110" height="91" viewBox="0 0 110 91" fill="none" xmlns="http://www.w3.org/2000/svg">
<path fill-rule="evenodd" clip-rule="evenodd" d="M70.4844 1.10255C73.2547 0.671591 75.4396 0.347779 77.136 0.106058C80.6487 -0.394502 84.4797 0.842524 85.8026 4.54858C86.2607 5.83193 86.6954 7.41083 87.0347 9.33541C87.4888 11.9109 87.5846 14.0399 87.5175 15.7174C87.3856 19.0251 84.6842 21.1402 81.7268 21.6617L81.6963 21.667L81.6656 21.6725L81.6347 21.6779L81.6038 21.6834L81.5727 21.6888L81.5417 21.6943L81.5104 21.6999L81.4474 21.7109L81.4158 21.7165L81.3839 21.722L81.352 21.7278L81.32 21.7333L81.2554 21.7448L81.1905 21.7563L81.1578 21.762L81.125 21.7678L81.0919 21.7737L81.0589 21.7794L81.0256 21.7854L80.9923 21.7911L80.9589 21.7971L80.8916 21.8089L80.8577 21.8149L80.8237 21.821L80.7552 21.8329L80.7209 21.839L80.6517 21.8513L80.582 21.8636L80.5117 21.8758L80.4765 21.8822L80.441 21.8883L80.3698 21.901L80.2255 21.9263L80.1892 21.9329L80.1526 21.9392L79.8933 21.9849L79.8557 21.9916L79.8181 21.9982L79.7041 22.0184L79.6273 22.0318L79.5889 22.0388L79.5501 22.0455L79.5113 22.0524L79.4723 22.0591L79.3151 22.0869L79.2755 22.094L79.2357 22.1009L79.1957 22.108L79.1557 22.115L78.9942 22.1435L78.9534 22.1508L78.8715 22.1651L78.6222 22.209L78.5803 22.2165L78.5381 22.2238L78.4959 22.2314L78.2824 22.269L78.2392 22.2767L78.1959 22.2842L77.9332 22.3305L77.8888 22.3385L77.8443 22.3462L77.62 22.3858L77.5747 22.3939L77.5293 22.4018L77.4836 22.4099L77.4379 22.4178L77.2999 22.4422L77.2534 22.4505L77.2071 22.4586L77.1604 22.4669L77.1136 22.475L76.8777 22.5166L76.7821 22.5336L76.7342 22.542L76.638 22.559L76.541 22.576L76.4923 22.5847L76.4434 22.5932L76.0974 22.6542L75.744 22.7166L75.6929 22.7257L75.6417 22.7346L75.5387 22.7528L75.435 22.771L75.3831 22.7803L75.3309 22.7894L75.2262 22.808L75.1735 22.8171L75.1207 22.8264L75.0678 22.8359L74.9615 22.8545L74.8546 22.8735L74.8008 22.8828L74.6929 22.9018L74.6388 22.9115L74.5844 22.921L74.53 22.9307L74.4753 22.9402L74.3657 22.9596L74.2552 22.979L74.1998 22.9889L74.1441 22.9986L74.0327 23.0184L73.9205 23.0382L73.8074 23.058L73.7508 23.0681L73.694 23.078L73.5226 23.1083L73.465 23.1184L73.4074 23.1287L73.3496 23.1388L73.2918 23.1491L73.2336 23.1592L73.1754 23.1695L73.1168 23.1798L73.0582 23.1903L72.9996 23.2005L72.9406 23.2108L72.8816 23.2213L72.7034 23.2528L72.5837 23.2738L72.5237 23.2845L72.4635 23.295L72.282 23.327L72.221 23.3377L72.1601 23.3486L72.0989 23.3593L71.8526 23.4029L71.7283 23.4246L71.666 23.4357L71.6036 23.4466L71.352 23.4909L71.2887 23.5022L71.2251 23.5133L71.1616 23.5246L70.9052 23.5697L70.8409 23.5812L70.7762 23.5925L70.7114 23.604L70.4505 23.6499L70.3191 23.6733L70.253 23.6847L70.1206 23.7081L70.054 23.72L69.9206 23.7433L69.5839 23.8027L69.516 23.8148L69.4481 23.8267L69.1743 23.875L69.1055 23.8872L69.0364 23.8993L68.8978 23.9239L68.8283 23.9359L68.7584 23.9484L68.6185 23.973L68.4779 23.9979L68.4073 24.0102L68.3366 24.0226L68.2655 24.0353L68.1232 24.0603L67.7641 24.1236L67.6919 24.1365L67.6194 24.1491L67.3276 24.2006L67.2542 24.2137L67.1807 24.2265L66.7355 24.3049L66.3598 24.3712L66.2842 24.3847L66.2084 24.398L65.8264 24.4653L65.6723 24.4926L65.5951 24.506L70.4844 1.10255ZM59.2957 25.617L59.2741 25.6207L59.1826 25.6368L58.7224 25.7179L58.63 25.7343L58.5371 25.7506L58.2574 25.7999L58.164 25.8165L58.0702 25.8329L57.6931 25.8994L57.5984 25.9163L57.5034 25.9329L57.1218 26.0002L57.0257 26.0172L56.9295 26.034L56.5431 26.1021L56.3487 26.1366L56.2512 26.1536L56.1536 26.171L55.9574 26.2055L55.8592 26.2229L55.7606 26.2401L55.5631 26.275L55.4639 26.2926L55.3647 26.31L54.8651 26.3981L54.7647 26.4159L54.664 26.4335L54.4619 26.4692L54.3605 26.4872L54.2592 26.505L54.1574 26.523L54.0555 26.5408L53.851 26.5768L53.7484 26.595L53.6457 26.6131L53.2328 26.6859L53.129 26.7043L53.0251 26.7225L52.6072 26.7962L52.5023 26.8148L52.3972 26.8332L52.1862 26.8704L52.0805 26.8892L51.9744 26.9078L51.8683 26.9266L51.7618 26.9452L51.6553 26.964L51.5484 26.983L51.334 27.0206L50.9031 27.0967L50.7948 27.1159L50.6863 27.1349L50.3597 27.1925L50.2504 27.2119L50.1407 27.2311L49.7007 27.3087L49.4794 27.3479L49.3683 27.3673L49.2571 27.3869L49.1458 27.4067L49.0342 27.4263L48.8103 27.4658L48.6981 27.4854L48.5856 27.5054L48.473 27.5252L48.36 27.5452L48.2469 27.565L48.0201 27.605L47.9064 27.6252L47.7924 27.6452L47.2195 27.7461L46.7573 27.8277L46.6413 27.8483L46.5249 27.8687L46.0578 27.951L45.705 28.0134L45.5872 28.034L45.3523 28.0755L44.7687 28.1785L44.4415 28.2361L49.3806 4.5974C55.2511 3.58281 60.1467 2.76336 64.2087 2.10261L59.2957 25.617ZM38.1426 29.3468L38.0735 29.3589L37.7641 29.4135L37.6616 29.4315L37.559 29.4497L37.2526 29.5038L37.1508 29.5216L37.0493 29.5396L36.746 29.5931L36.6453 29.6107L36.5449 29.6285L36.0453 29.7166L35.9461 29.734L35.8469 29.7516L35.6494 29.7864L35.5508 29.8037L35.4524 29.8211L35.3544 29.8383L35.2564 29.8557L35.1588 29.873L35.0613 29.89L34.8669 29.9244L34.3843 30.0095L33.8116 30.1105L33.3399 30.1936L33.246 30.2101L33.1524 30.2267L32.8729 30.276L32.78 30.2922L32.6874 30.3086L32.2274 30.3898L32.0446 30.4219L31.9536 30.4381L31.8627 30.4541L31.7721 30.47L31.6816 30.486L31.5913 30.5019L31.5013 30.5179L31.3215 30.5496L31.232 30.5652L31.1428 30.581L31.0535 30.5967L30.9646 30.6125L30.8759 30.6281L30.7872 30.6436L30.6107 30.6749L30.0855 30.7675L29.6532 30.8437L29.5673 30.8588L29.4815 30.874L29.2254 30.9191L29.1405 30.934L29.0556 30.949L28.971 30.9639L28.8865 30.9789L28.8024 30.9938L28.7182 31.0084L28.5508 31.0381L28.1351 31.1113L28.0525 31.1258L27.9702 31.1404L27.6424 31.1982L27.561 31.2125L27.4796 31.227L27.1564 31.284L27.076 31.298L26.9958 31.3123L26.6769 31.3685L26.5978 31.3823L26.5186 31.3964L26.1258 31.4657L25.9701 31.493L25.8923 31.5069L25.7377 31.5342L25.6605 31.5476L25.5837 31.5613L25.1258 31.6421L24.6743 31.7216L24.5252 31.7478L24.451 31.761L24.3769 31.7741L24.3031 31.787L24.1558 31.8131L23.7906 31.8774L23.7181 31.8901L23.6459 31.903L23.3583 31.9536L23.2914 31.9653L28.2238 8.35904C32.184 7.63317 36.6908 6.82216 41.8093 5.91963L43.0843 5.69515L38.1426 29.3468ZM16.9926 33.076L16.9894 33.0766L16.9346 33.0863L16.88 33.0958L16.8255 33.1055L16.7712 33.115L16.717 33.1247L16.5554 33.1532L16.5019 33.1625L16.4485 33.172L16.3422 33.1906L16.2892 33.2001L16.1838 33.2188L16.1314 33.2279L16.079 33.2372L16.0269 33.2463L15.9749 33.2556L15.7684 33.292L15.7171 33.3009L15.666 33.31L15.5643 33.3278L15.5136 33.3369L15.4631 33.3456L15.3126 33.3724L15.213 33.3898L15.1634 33.3987L15.1139 33.4074L15.0647 33.4159L14.9665 33.4333L14.9177 33.4418L14.869 33.4506L14.6278 33.4931L14.58 33.5014L14.5324 33.5099L14.2963 33.5515L14.2496 33.5596L14.2029 33.5679L14.1565 33.5761L14.1101 33.5844L13.9721 33.6087L13.9263 33.6166L13.8353 33.6329L13.5656 33.6804L13.5212 33.6881L13.4769 33.696L13.2142 33.7423L13.1709 33.7499L13.1277 33.7576L12.8718 33.8027L12.8296 33.81L12.7876 33.8176L12.6736 33.8376H80.5109C84.605 33.8376 88.1772 36.6627 88.6781 40.8271C89.2068 45.2226 89.7462 52.012 89.7462 61.4188C89.7462 69.6233 89.3359 75.5083 88.879 79.5182C88.3299 84.3396 85.1175 88.6469 80.3358 89C74.397 90.4165 64.8051 90.0143 47.3346 90.0143C29.864 90.0143 17.8322 88.5269 11.8274 88.0835C7.04577 87.7303 3.27217 84.3396 2.72293 79.5182C2.26615 75.5085 1.85581 69.6233 1.85581 61.4188C1.85581 52.012 2.3952 45.2226 2.92391 40.8271C3.28333 37.8388 5.22434 35.5402 7.80484 34.4801C5.4466 34.3528 3.20085 33.1808 2.20857 30.7596C1.57193 29.2062 0.933707 27.1729 0.479582 24.5975C0.140211 22.6728 0.00859211 21.0405 0.000139504 19.6778C-0.0242483 15.7428 3.15264 13.2701 6.6247 12.5391C9.77739 11.8753 14.6522 10.8936 21.9122 9.52962L16.9926 33.076ZM17.2789 58.5914C17.425 55.6756 19.5469 53.5452 22.4623 53.3932C24.1719 53.3041 26.4469 53.2386 29.4412 53.2386C32.4354 53.2386 34.7105 53.3041 36.42 53.3932C39.3355 53.5452 41.4573 55.6756 41.6034 58.5914C41.6687 59.8969 41.7141 61.5081 41.7141 63.466C41.7141 65.424 41.6687 67.0351 41.6034 68.3406C41.4573 71.2565 39.3355 73.3868 36.42 73.5389C34.7105 73.6279 32.4352 73.6935 29.4412 73.6935C26.4471 73.6935 24.1719 73.6279 22.4623 73.5389C19.5469 73.387 17.425 71.2565 17.2789 68.3406C17.2135 67.0351 17.1682 65.424 17.1682 63.466C17.1682 61.5081 17.2135 59.8969 17.2789 58.5914Z" fill="url(#paint0_linear_21_8)"/>
<path fill-rule="evenodd" clip-rule="evenodd" d="M93.8276 50.4442C95.2349 49.0368 97.8486 57.3564 97.8486 58.9386V78.0387C97.8486 79.6209 99.1314 80.9036 100.714 80.9036C102.296 80.9036 103.579 79.6209 103.579 78.0387C103.579 76.4564 104.861 75.1737 106.444 75.1737C108.026 75.1737 109.309 76.4564 109.309 78.0387C109.309 82.7854 105.46 86.6337 100.714 86.6337C95.9669 86.6337 92.1186 82.7854 92.1186 78.0387V58.9386C92.1186 57.3564 92.2453 50.4442 93.8276 50.4442Z" fill="#6545C0"/>
<path fill-rule="evenodd" clip-rule="evenodd" d="M76.8386 30.741C65.2351 30.741 55.8286 40.1475 55.8286 51.751C55.8286 63.3545 65.2351 72.761 76.8386 72.761C88.4421 72.761 97.8486 63.3545 97.8486 51.751C97.8486 40.1475 88.4421 30.741 76.8386 30.741Z" fill="#DBC8FC"/>
<path fill-rule="evenodd" clip-rule="evenodd" d="M76.8385 45.5435C78.6845 45.5435 80.181 44.047 80.181 42.201C80.181 40.355 78.6845 38.8585 76.8385 38.8585C74.9925 38.8585 73.496 40.355 73.496 42.201C73.496 44.047 74.9925 45.5435 76.8385 45.5435ZM68.0346 55.1233C69.8806 55.1233 71.3771 53.6268 71.3771 51.7808C71.3771 49.9348 69.8806 48.4383 68.0346 48.4383C66.1886 48.4383 64.6921 49.9348 64.6921 51.7808C64.6921 53.6268 66.1886 55.1233 68.0346 55.1233ZM88.9849 51.7808C88.9849 53.6268 87.4884 55.1233 85.6424 55.1233C83.7964 55.1233 82.2999 53.6268 82.2999 51.7808C82.2999 49.9348 83.7964 48.4383 85.6424 48.4383C87.4884 48.4383 88.9849 49.9348 88.9849 51.7808ZM76.8385 64.1362C78.6845 64.1362 80.181 62.6397 80.181 60.7937C80.181 58.9476 78.6845 57.4512 76.8385 57.4512C74.9925 57.4512 73.496 58.9476 73.496 60.7937C73.496 62.6397 74.9925 64.1362 76.8385 64.1362Z" fill="#6748C0"/>
<defs>
<linearGradient id="paint0_linear_21_8" x1="14.6701" y1="17.1145" x2="86.8696" y2="57.4534" gradientUnits="userSpaceOnUse">
<stop stop-color="#9870F0"/>
<stop offset="1" stop-color="#CE9AFC"/>
</linearGradient>
</defs>
</svg>
