<svg width="120" height="91" viewBox="0 0 120 91" fill="none" xmlns="http://www.w3.org/2000/svg">
<path fill-rule="evenodd" clip-rule="evenodd" d="M72.4844 1.10255C75.2547 0.671591 77.4396 0.347779 79.136 0.106058C82.6487 -0.394502 86.4797 0.842524 87.8026 4.54858C88.2607 5.83193 88.6954 7.41083 89.0347 9.33541C89.4888 11.9109 89.5846 14.0399 89.5175 15.7174C89.3856 19.0251 86.6842 21.1402 83.7268 21.6617L83.6963 21.667L83.6656 21.6725L83.6347 21.6779L83.6038 21.6834L83.5727 21.6888L83.5417 21.6943L83.5104 21.6999L83.4474 21.7109L83.4158 21.7165L83.3839 21.722L83.352 21.7278L83.32 21.7333L83.2554 21.7448L83.1905 21.7563L83.1578 21.762L83.125 21.7678L83.0919 21.7737L83.0589 21.7794L83.0256 21.7854L82.9923 21.7911L82.9589 21.7971L82.8916 21.8089L82.8577 21.8149L82.8237 21.821L82.7552 21.8329L82.7209 21.839L82.6517 21.8513L82.582 21.8636L82.5117 21.8758L82.4765 21.8822L82.441 21.8883L82.3698 21.901L82.2255 21.9263L82.1892 21.9329L82.1526 21.9392L81.8933 21.9849L81.8557 21.9916L81.8181 21.9982L81.7041 22.0184L81.6273 22.0318L81.5889 22.0388L81.5501 22.0455L81.5113 22.0524L81.4723 22.0591L81.3151 22.0869L81.2755 22.094L81.2357 22.1009L81.1957 22.108L81.1557 22.115L80.9942 22.1435L80.9534 22.1508L80.8715 22.1651L80.6222 22.209L80.5803 22.2165L80.5381 22.2238L80.4959 22.2314L80.2824 22.269L80.2392 22.2767L80.1959 22.2842L79.9332 22.3305L79.8888 22.3385L79.8443 22.3462L79.62 22.3858L79.5747 22.3939L79.5293 22.4018L79.4836 22.4099L79.4379 22.4178L79.2999 22.4422L79.2534 22.4505L79.2071 22.4586L79.1604 22.4669L79.1136 22.475L78.8777 22.5166L78.7821 22.5336L78.7342 22.542L78.638 22.559L78.541 22.576L78.4923 22.5847L78.4434 22.5932L78.0974 22.6542L77.744 22.7166L77.6929 22.7257L77.6417 22.7346L77.5387 22.7528L77.435 22.771L77.3831 22.7803L77.3309 22.7894L77.2262 22.808L77.1735 22.8171L77.1207 22.8264L77.0678 22.8359L76.9615 22.8545L76.8546 22.8735L76.8008 22.8828L76.6929 22.9018L76.6388 22.9115L76.5844 22.921L76.53 22.9307L76.4753 22.9402L76.3657 22.9596L76.2552 22.979L76.1998 22.9889L76.1441 22.9986L76.0327 23.0184L75.9205 23.0382L75.8074 23.058L75.7508 23.0681L75.694 23.078L75.5226 23.1083L75.465 23.1184L75.4074 23.1287L75.3496 23.1388L75.2918 23.1491L75.2336 23.1592L75.1754 23.1695L75.1168 23.1798L75.0582 23.1903L74.9996 23.2005L74.9406 23.2108L74.8816 23.2213L74.7034 23.2528L74.5837 23.2738L74.5237 23.2845L74.4635 23.295L74.282 23.327L74.221 23.3377L74.1601 23.3486L74.0989 23.3593L73.8526 23.4029L73.7283 23.4246L73.666 23.4357L73.6036 23.4466L73.352 23.4909L73.2887 23.5022L73.2251 23.5133L73.1616 23.5246L72.9052 23.5697L72.8409 23.5812L72.7762 23.5925L72.7114 23.604L72.4505 23.6499L72.3191 23.6733L72.253 23.6847L72.1206 23.7081L72.054 23.72L71.9206 23.7433L71.5839 23.8027L71.516 23.8148L71.4481 23.8267L71.1743 23.875L71.1055 23.8872L71.0364 23.8993L70.8978 23.9239L70.8283 23.9359L70.7584 23.9484L70.6185 23.973L70.4779 23.9979L70.4073 24.0102L70.3366 24.0226L70.2655 24.0353L70.1232 24.0603L69.7641 24.1236L69.6919 24.1365L69.6194 24.1491L69.3276 24.2006L69.2542 24.2137L69.1807 24.2265L68.7355 24.3049L68.3598 24.3712L68.2842 24.3847L68.2084 24.398L67.8264 24.4653L67.6723 24.4926L67.5951 24.506L72.4844 1.10255ZM61.2957 25.617L61.2741 25.6207L61.1826 25.6368L60.7224 25.7179L60.63 25.7343L60.5371 25.7506L60.2574 25.7999L60.164 25.8165L60.0702 25.8329L59.6931 25.8994L59.5984 25.9163L59.5034 25.9329L59.1218 26.0002L59.0257 26.0172L58.9295 26.034L58.5431 26.1021L58.3487 26.1366L58.2512 26.1536L58.1536 26.171L57.9574 26.2055L57.8592 26.2229L57.7606 26.2401L57.5631 26.275L57.4639 26.2926L57.3647 26.31L56.8651 26.3981L56.7647 26.4159L56.664 26.4335L56.4619 26.4692L56.3605 26.4872L56.2592 26.505L56.1574 26.523L56.0555 26.5408L55.851 26.5768L55.7484 26.595L55.6457 26.6131L55.2328 26.6859L55.129 26.7043L55.0251 26.7225L54.6072 26.7962L54.5023 26.8148L54.3972 26.8332L54.1862 26.8704L54.0805 26.8892L53.9744 26.9078L53.8683 26.9266L53.7618 26.9452L53.6553 26.964L53.5484 26.983L53.334 27.0206L52.9031 27.0967L52.7948 27.1159L52.6863 27.1349L52.3597 27.1925L52.2504 27.2119L52.1407 27.2311L51.7007 27.3087L51.4794 27.3479L51.3683 27.3673L51.2571 27.3869L51.1458 27.4067L51.0342 27.4263L50.8103 27.4658L50.6981 27.4854L50.5856 27.5054L50.473 27.5252L50.36 27.5452L50.2469 27.565L50.0201 27.605L49.9064 27.6252L49.7924 27.6452L49.2195 27.7461L48.7573 27.8277L48.6413 27.8483L48.5249 27.8687L48.0578 27.951L47.705 28.0134L47.5872 28.034L47.3523 28.0755L46.7687 28.1785L46.4415 28.2361L51.3806 4.5974C57.2511 3.58281 62.1467 2.76336 66.2087 2.10261L61.2957 25.617ZM40.1426 29.3468L40.0735 29.3589L39.7641 29.4135L39.6616 29.4315L39.559 29.4497L39.2526 29.5038L39.1508 29.5216L39.0493 29.5396L38.746 29.5931L38.6453 29.6107L38.5449 29.6285L38.0453 29.7166L37.9461 29.734L37.8469 29.7516L37.6494 29.7864L37.5508 29.8037L37.4524 29.8211L37.3544 29.8383L37.2564 29.8557L37.1588 29.873L37.0613 29.89L36.8669 29.9244L36.3843 30.0095L35.8116 30.1105L35.3399 30.1936L35.246 30.2101L35.1524 30.2267L34.8729 30.276L34.78 30.2922L34.6874 30.3086L34.2274 30.3898L34.0446 30.4219L33.9536 30.4381L33.8627 30.4541L33.7721 30.47L33.6816 30.486L33.5913 30.5019L33.5013 30.5179L33.3215 30.5496L33.232 30.5652L33.1428 30.581L33.0535 30.5967L32.9646 30.6125L32.8759 30.6281L32.7872 30.6436L32.6107 30.6749L32.0855 30.7675L31.6532 30.8437L31.5673 30.8588L31.4815 30.874L31.2254 30.9191L31.1405 30.934L31.0556 30.949L30.971 30.9639L30.8865 30.9789L30.8024 30.9938L30.7182 31.0084L30.5508 31.0381L30.1351 31.1113L30.0525 31.1258L29.9702 31.1404L29.6424 31.1982L29.561 31.2125L29.4796 31.227L29.1564 31.284L29.076 31.298L28.9958 31.3123L28.6769 31.3685L28.5978 31.3823L28.5186 31.3964L28.1258 31.4657L27.9701 31.493L27.8923 31.5069L27.7377 31.5342L27.6605 31.5476L27.5837 31.5613L27.1258 31.6421L26.6743 31.7216L26.5252 31.7478L26.451 31.761L26.3769 31.7741L26.3031 31.787L26.1558 31.8131L25.7906 31.8774L25.7181 31.8901L25.6459 31.903L25.3583 31.9536L25.2914 31.9653L30.2238 8.35904C34.184 7.63317 38.6908 6.82216 43.8093 5.91963L45.0843 5.69515L40.1426 29.3468ZM18.9926 33.076L18.9894 33.0766L18.9346 33.0863L18.88 33.0958L18.8255 33.1055L18.7712 33.115L18.717 33.1247L18.5554 33.1532L18.5019 33.1625L18.4485 33.172L18.3422 33.1906L18.2892 33.2001L18.1838 33.2188L18.1314 33.2279L18.079 33.2372L18.0269 33.2463L17.9749 33.2556L17.7684 33.292L17.7171 33.3009L17.666 33.31L17.5643 33.3278L17.5136 33.3369L17.4631 33.3456L17.3126 33.3724L17.213 33.3898L17.1634 33.3987L17.1139 33.4074L17.0647 33.4159L16.9665 33.4333L16.9177 33.4418L16.869 33.4506L16.6278 33.4931L16.58 33.5014L16.5324 33.5099L16.2963 33.5515L16.2496 33.5596L16.2029 33.5679L16.1565 33.5761L16.1101 33.5844L15.9721 33.6087L15.9263 33.6166L15.8353 33.6329L15.5656 33.6804L15.5212 33.6881L15.4769 33.696L15.2142 33.7423L15.1709 33.7499L15.1277 33.7576L14.8718 33.8027L14.8296 33.81L14.7876 33.8176L14.6736 33.8376H82.5109C86.605 33.8376 90.1772 36.6627 90.6781 40.8271C91.2068 45.2226 91.7462 52.012 91.7462 61.4188C91.7462 69.6233 91.3359 75.5083 90.879 79.5182C90.3299 84.3396 87.1175 88.6469 82.3358 89C76.397 90.4165 66.8051 90.0143 49.3346 90.0143C31.864 90.0143 19.8322 88.5269 13.8274 88.0835C9.04577 87.7303 5.27217 84.3396 4.72293 79.5182C4.26615 75.5085 3.85581 69.6233 3.85581 61.4188C3.85581 52.012 4.3952 45.2226 4.92391 40.8271C5.28333 37.8388 7.22434 35.5402 9.80484 34.4801C7.4466 34.3528 5.20085 33.1808 4.20857 30.7596C3.57193 29.2062 2.93371 27.1729 2.47958 24.5975C2.14021 22.6728 2.00859 21.0405 2.00014 19.6778C1.97575 15.7428 5.15264 13.2701 8.6247 12.5391C11.7774 11.8753 16.6522 10.8936 23.9122 9.52962L18.9926 33.076ZM19.2789 58.5914C19.425 55.6756 21.5469 53.5452 24.4623 53.3932C26.1719 53.3041 28.4469 53.2386 31.4412 53.2386C34.4354 53.2386 36.7105 53.3041 38.42 53.3932C41.3355 53.5452 43.4573 55.6756 43.6034 58.5914C43.6687 59.8969 43.7141 61.5081 43.7141 63.466C43.7141 65.424 43.6687 67.0351 43.6034 68.3406C43.4573 71.2565 41.3355 73.3868 38.42 73.5389C36.7105 73.6279 34.4352 73.6935 31.4412 73.6935C28.4471 73.6935 26.1719 73.6279 24.4623 73.5389C21.5469 73.387 19.425 71.2565 19.2789 68.3406C19.2135 67.0351 19.1682 65.424 19.1682 63.466C19.1682 61.5081 19.2135 59.8969 19.2789 58.5914Z" fill="url(#paint0_linear_21_8)"/>
<path fill-rule="evenodd" clip-rule="evenodd" d="M103.828 50.4442C105.235 49.0368 107.849 57.3564 107.849 58.9386V78.0387C107.849 79.6209 109.131 80.9036 110.714 80.9036C112.296 80.9036 113.579 79.6209 113.579 78.0387C113.579 76.4564 114.861 75.1737 116.444 75.1737C118.026 75.1737 119.309 76.4564 119.309 78.0387C119.309 82.7854 115.46 86.6337 110.714 86.6337C105.967 86.6337 102.119 82.7854 102.119 78.0387V58.9386C102.119 57.3564 102.245 50.4442 103.828 50.4442Z" fill="#6545C0"/>
<path fill-rule="evenodd" clip-rule="evenodd" d="M90.8386 30.741C79.2351 30.741 69.8286 40.1475 69.8286 51.751C69.8286 63.3545 79.2351 72.761 90.8386 72.761C102.442 72.761 111.849 63.3545 111.849 51.751C111.849 40.1475 102.442 30.741 90.8386 30.741Z" fill="#DBC8FC"/>
<path fill-rule="evenodd" clip-rule="evenodd" d="M90.8385 45.5435C92.6845 45.5435 94.181 44.047 94.181 42.201C94.181 40.355 92.6845 38.8585 90.8385 38.8585C88.9925 38.8585 87.496 40.355 87.496 42.201C87.496 44.047 88.9925 45.5435 90.8385 45.5435ZM82.0346 55.1233C83.8806 55.1233 85.3771 53.6268 85.3771 51.7808C85.3771 49.9348 83.8806 48.4383 82.0346 48.4383C80.1886 48.4383 78.6921 49.9348 78.6921 51.7808C78.6921 53.6268 80.1886 55.1233 82.0346 55.1233ZM102.985 51.7808C102.985 53.6268 101.488 55.1233 99.6424 55.1233C97.7964 55.1233 96.2999 53.6268 96.2999 51.7808C96.2999 49.9348 97.7964 48.4383 99.6424 48.4383C101.488 48.4383 102.985 49.9348 102.985 51.7808ZM90.8385 64.1362C92.6845 64.1362 94.181 62.6397 94.181 60.7937C94.181 58.9476 92.6845 57.4512 90.8385 57.4512C88.9925 57.4512 87.496 58.9476 87.496 60.7937C87.496 62.6397 88.9925 64.1362 90.8385 64.1362Z" fill="#6748C0"/>
<defs>
<linearGradient id="paint0_linear_21_8" x1="17.7438" y1="17.1145" x2="92.5279" y2="61.9554" gradientUnits="userSpaceOnUse">
<stop stop-color="#9870F0"/>
<stop offset="1" stop-color="#CE9AFC"/>
</linearGradient>
</defs>
</svg>
