<svg xmlns="http://www.w3.org/2000/svg" viewBox="0 0 24 24" fill="none" stroke="#6C63FF" stroke-width="2" stroke-linecap="round" stroke-linejoin="round">
  <path d="M20.2 6 3 11l-.9-2.4c-.3-1.1.4-2.2 1.5-2.5l13.5-4c1.1-.3 2.2.4 2.5 1.5l.6 2.4z"/>
  <path d="m2.6 12 17.3 5c1.1.3 1.8 1.4 1.5 2.5l-.9 2.4c-.3 1.1-1.4 1.8-2.5 1.5l-17.3-5c-1.1-.3-1.8-1.4-1.5-2.5l.9-2.4c.3-1.1 1.4-1.8 2.5-1.5z"/>
  <path d="M2 10 18 4"/>
  <path d="m2 14 18 5"/>
  <path d="m4 10 2-6"/>
  <path d="m8 11 2-6"/>
  <path d="m12 12 2-6"/>
  <path d="m16 13 2-6"/>
</svg>
